<?xml version="1.0" encoding="utf-8"?>
<!-- Generator: Adobe Illustrator 15.1.0, SVG Export Plug-In . SVG Version: 6.00 Build 0)  -->
<!DOCTYPE svg PUBLIC "-//W3C//DTD SVG 1.1//EN" "http://www.w3.org/Graphics/SVG/1.1/DTD/svg11.dtd">
<svg version="1.1" id="Camada_1" xmlns="http://www.w3.org/2000/svg" xmlns:xlink="http://www.w3.org/1999/xlink" x="0px" y="0px"
	 width="218px" height="139px" viewBox="0 0 218 139" enable-background="new 0 0 218 139" xml:space="preserve">
<path fill="#BF0D00" d="M160.334,86.305c0,7.008-5.74,12.688-12.82,12.688H58.488c-7.079,0-12.819-5.682-12.819-12.688V22.684
	c0-7.008,5.74-12.689,12.819-12.689h89.025c7.08,0,12.82,5.682,12.82,12.689V86.305z"/>
<rect x="72.667" y="27.834" fill="#FFFFFF" width="9.667" height="34.333"/>
<rect x="60" y="39" fill="#FFFFFF" width="35" height="8.334"/>
<rect x="122.834" y="27.834" fill="#FFFFFF" width="10.666" height="34.333"/>
<rect x="109" y="39" fill="#FFFFFF" width="38.334" height="8.334"/>
<ellipse fill="#FFFFFF" cx="103.001" cy="80" rx="14.833" ry="10.5"/>
<rect x="80.5" y="103.957" fill="#34BF00" width="48.334" height="11.916"/>
<rect x="93" y="98.791" fill="#34BF00" width="23.333" height="5.166"/>
</svg>
